#!OML:ASF F:\VICON\USERDATA\INSTALL\rory3\rory3.ASF
:FULLY-SPECIFIED
:DEGREES
1
root -0.712909 17.5379 0.920988 14.4554 -5.92739 -3.96943
lowerback -12.4902 -0.579419 2.73925
upperback -5.17584 -1.13994 1.55478
thorax 1.55765 -0.593708 -0.0816649
lowerneck -10.861 -9.19275 -11.8148
upperneck 26.3998 -12.2817 5.92126
head 11.5137 -6.13631 2.42687
rclavicle 6.20697e-015 -1.80086e-014
rhumerus -37.6754 7.7702 -93.3711
rradius 31.8954
rwrist 7.23161
rhand -20.542 -51.9408
rfingers 7.12502
rthumb 5.81657 -81.841
lclavicle 6.20697e-015 -1.80086e-014
lhumerus -38.2748 -8.30476 91.9023
lradius 29.142
lwrist 8.93527
lhand -32.6129 -26.4633
lfingers 7.12502
lthumb -5.84051 3.43616
rfemur -22.7436 13.2989 20.3332
rtibia 26.2033
rfoot -12.7394 -11.7257
rtoes -4.21869
lfemur -21.1481 -9.94367 -14.8981
ltibia 26.832
lfoot -16.4262 17.599
ltoes -2.8722
2
root -0.712618 17.5377 0.920102 14.4692 -5.91152 -4.02443
lowerback -12.4137 -0.572099 2.79887
upperback -5.17263 -1.13501 1.58971
thorax 1.51909 -0.592022 -0.0771903
lowerneck -10.8833 -9.02732 -11.7438
upperneck 26.3238 -12.0515 5.93481
head 11.4596 -6.02319 2.45769
rclavicle 1.13874e-015 4.72114e-016
rhumerus -37.6628 7.71033 -93.2918
rradius 31.8905
rwrist 7.50765
rhand -20.3292 -51.4818
rfingers 7.12502
rthumb 6.02202 -81.3762
lclavicle 1.13874e-015 4.72114e-016
lhumerus -38.2504 -8.47394 92.0255
lradius 29.1219
lwrist 9.36741
lhand -32.7146 -26.3832
lfingers 7.12502
lthumb -5.93865 3.51357
rfemur -22.7749 13.2783 20.395
rtibia 26.2368
rfoot -12.7539 -11.7138
rtoes -4.11726
lfemur -21.1853 -9.84443 -14.8378
ltibia 26.8242
lfoot -16.3527 17.5543
ltoes -2.81463
3
root -0.713549 17.5381 0.919427 14.493 -5.85516 -3.97415
lowerback -12.32 -0.607757 2.7192
upperback -5.24275 -1.16815 1.61678
thorax 1.39698 -0.609237 -0.00671138
lowerneck -11.0344 -8.89117 -11.5976
upperneck 26.4936 -11.8308 5.76067
head 11.5087 -5.92541 2.39968
rclavicle -3.47097e-015 1.635e-014
rhumerus -37.8447 7.75572 -93.2946
rradius 31.9622
rwrist 7.51098
rhand -19.9101 -51.5403
rfingers 7.12502
rthumb 6.42656 -81.4228
lclavicle -3.47097e-015 1.635e-014
lhumerus -38.3383 -8.44397 92.0596
lradius 29.138
lwrist 9.37279
lhand -32.7193 -26.2514
lfingers 7.12502
lthumb -5.94317 3.64525
rfemur -22.82 13.2332 20.354
rtibia 26.2745
rfoot -12.8007 -11.7454
rtoes -3.94504
lfemur -21.2367 -9.85115 -14.8641
ltibia 26.7939
lfoot -16.2128 17.4765
ltoes -2.70438
4
root -0.716114 17.5387 0.919008 14.5292 -5.85333 -3.92398
lowerback -12.3112 -0.613214 2.61956
upperback -5.30151 -1.16275 1.63588
thorax 1.33365 -0.606191 0.0705065
lowerneck -11.2983 -8.79318 -11.4183
upperneck 26.7974 -11.641 5.48986
head 11.6275 -5.84681 2.29036
rclavicle 8.0601e-016 -1.58034e-014
rhumerus -38.0339 7.7772 -93.3135
rradius 31.9669
rwrist 7.58657
rhand -20.1453 -51.5882
rfingers 7.12502
rthumb 6.19953 -81.4775
lclavicle 8.0601e-016 -1.58034e-014
lhumerus -38.497 -8.38886 92.0806
lradius 29.2288
lwrist 9.21421
lhand -32.8838 -26.5592
lfingers 7.12502
lthumb -6.10199 3.33297
rfemur -22.8901 13.3194 20.2884
rtibia 26.3057
rfoot -12.7494 -11.8438
rtoes -3.84221
lfemur -21.2718 -9.90467 -14.8899
ltibia 26.7768
lfoot -16.1398 17.5196
ltoes -2.58258
5
root -0.719453 17.5376 0.918328 14.5634 -5.91877 -3.9346
lowerback -12.3328 -0.589458 2.57679
upperback -5.29693 -1.12809 1.6566
thorax 1.35209 -0.587934 0.120219
lowerneck -11.6415 -8.63188 -11.2456
upperneck 27.0373 -11.3889 5.37535
head 11.7433 -5.72091 2.24666
rclavicle -1.9439e-014 -3.42904e-015
rhumerus -38.089 7.76746 -93.3206
rradius 31.97
rwrist 7.69087
rhand -20.9042 -51.0388
rfingers 7.12502
rthumb 5.46688 -80.9483
lclavicle -1.9439e-014 -3.42904e-015
lhumerus -38.5094 -8.36206 92.0664
lradius 29.304
lwrist 9.04184
lhand -32.9299 -26.7587
lfingers 7.12502
lthumb -6.14653 3.13211
rfemur -22.9713 13.5128 20.265
rtibia 26.3356
rfoot -12.6349 -11.9695
rtoes -3.99802
lfemur -21.2885 -9.92541 -14.8601
ltibia 26.7606
lfoot -16.1548 17.6159
ltoes -2.71364
6
root -0.720227 17.5367 0.919137 14.6225 -5.98239 -3.89719
lowerback -12.3484 -0.574683 2.51557
upperback -5.28819 -1.10282 1.6665
thorax 1.37155 -0.574216 0.167918
lowerneck -12.1691 -8.3929 -11.0441
upperneck 27.3532 -11.0366 5.33251
head 11.9199 -5.53446 2.23419
rclavicle 1.04797e-014 -8.69683e-015
rhumerus -38.0307 7.71124 -93.2525
rradius 32.0998
rwrist 7.83827
rhand -21.1334 -50.5518
rfingers 7.12502
rthumb 5.24555 -80.4669
lclavicle 1.04797e-014 -8.69683e-015
lhumerus -38.4372 -8.30998 92.0472
lradius 29.3739
lwrist 8.93393
lhand -32.8725 -26.631
lfingers 7.12502
lthumb -6.09109 3.26141
rfemur -23.0574 13.5832 20.1906
rtibia 26.3493
rfoot -12.6224 -11.9953
rtoes -4.13277
lfemur -21.3377 -9.82839 -14.9098
ltibia 26.7573
lfoot -16.183 17.5654
ltoes -2.77039
7
root -0.720005 17.5384 0.919506 14.685 -6.0067 -3.85978
lowerback -12.349 -0.557277 2.4716
upperback -5.32212 -1.07418 1.673
thorax 1.33792 -0.559847 0.203449
lowerneck -12.389 -8.139 -10.9044
upperneck 27.5037 -10.6957 5.36633
head 11.9814 -5.3584 2.2721
rclavicle -6.3813e-015 -1.2424e-014
rhumerus -38.0476 7.70075 -93.22
rradius 32.2992
rwrist 7.82258
rhand -21.1934 -50.7581
rfingers 7.12502
rthumb 5.18766 -80.6746
lclavicle -6.3813e-015 -1.2424e-014
lhumerus -38.4588 -8.29453 92.0767
lradius 29.4488
lwrist 8.89514
lhand -32.8085 -26.4072
lfingers 7.12502
lthumb -6.02936 3.48704
rfemur -23.1401 13.5953 20.1248
rtibia 26.347
rfoot -12.6312 -11.9903
rtoes -3.92419
lfemur -21.3949 -9.72556 -14.9613
ltibia 26.7656
lfoot -16.2133 17.4701
ltoes -2.67184
